<?xml version="1.0" encoding="utf-8"?>
<!-- Generator: Adobe Illustrator 23.0.1, SVG Export Plug-In . SVG Version: 6.00 Build 0)  -->
<svg version="1.1" xmlns="http://www.w3.org/2000/svg" xmlns:xlink="http://www.w3.org/1999/xlink" x="0px" y="0px"
	 viewBox="0 0 716 632" style="enable-background:new 0 0 716 632;" xml:space="preserve">
<style type="text/css">
	.st0{fill:#D7D7D7;stroke:#F1F2F2;stroke-width:2;stroke-miterlimit:10;}
	.st1{fill:#D91E25;stroke:#F1F2F2;stroke-width:2;stroke-miterlimit:10;}
	.st2{fill:#2D95D0;stroke:#F1F2F2;stroke-width:2;stroke-miterlimit:10;}
	.st3{fill:#222222;}
</style>
<g id="cells">
	<rect x="1" y="337" class="st0" width="42" height="42"/>
	<rect x="43" y="337" class="st0" width="42" height="42"/>
	<rect x="85" y="337" class="st1" width="42" height="42"/>
	<rect x="127" y="337" class="st1" width="42" height="42"/>
	<rect x="169" y="337" class="st1" width="42" height="42"/>
	<rect x="211" y="337" class="st0" width="42" height="42"/>
	<rect x="253" y="337" class="st0" width="42" height="42"/>
	<rect x="295" y="337" class="st0" width="42" height="42"/>
	<rect x="337" y="337" class="st0" width="42" height="42"/>
	<rect x="379" y="337" class="st0" width="42" height="42"/>
	<rect x="421" y="337" class="st0" width="42" height="42"/>
	<rect x="1" y="379" class="st0" width="42" height="42"/>
	<rect x="43" y="379" class="st0" width="42" height="42"/>
	<rect x="85" y="379" class="st0" width="42" height="42"/>
	<rect x="127" y="379" class="st0" width="42" height="42"/>
	<rect x="169" y="379" class="st1" width="42" height="42"/>
	<rect x="211" y="379" class="st1" width="42" height="42"/>
	<rect x="253" y="379" class="st0" width="42" height="42"/>
	<rect x="295" y="379" class="st0" width="42" height="42"/>
	<rect x="337" y="379" class="st0" width="42" height="42"/>
	<rect x="379" y="379" class="st0" width="42" height="42"/>
	<rect x="421" y="379" class="st0" width="42" height="42"/>
	<rect x="1" y="421" class="st0" width="42" height="42"/>
	<rect x="43" y="421" class="st0" width="42" height="42"/>
	<rect x="85" y="421" class="st0" width="42" height="42"/>
	<rect x="127" y="421" class="st0" width="42" height="42"/>
	<rect x="169" y="421" class="st0" width="42" height="42"/>
	<rect x="211" y="421" class="st0" width="42" height="42"/>
	<rect x="253" y="421" class="st0" width="42" height="42"/>
	<rect x="295" y="421" class="st0" width="42" height="42"/>
	<rect x="337" y="421" class="st0" width="42" height="42"/>
	<rect x="379" y="421" class="st0" width="42" height="42"/>
	<rect x="421" y="421" class="st0" width="42" height="42"/>
	<rect x="1" y="463" class="st0" width="42" height="42"/>
	<rect x="43" y="463" class="st0" width="42" height="42"/>
	<rect x="85" y="463" class="st0" width="42" height="42"/>
	<rect x="127" y="463" class="st0" width="42" height="42"/>
	<rect x="169" y="463" class="st0" width="42" height="42"/>
	<rect x="211" y="463" class="st0" width="42" height="42"/>
	<rect x="253" y="463" class="st0" width="42" height="42"/>
	<rect x="295" y="463" class="st0" width="42" height="42"/>
	<rect x="337" y="463" class="st0" width="42" height="42"/>
	<rect x="379" y="463" class="st0" width="42" height="42"/>
	<rect x="421" y="463" class="st0" width="42" height="42"/>
	<rect x="1" y="505" class="st0" width="42" height="42"/>
	<rect x="43" y="505" class="st0" width="42" height="42"/>
	<rect x="85" y="505" class="st0" width="42" height="42"/>
	<rect x="127" y="505" class="st0" width="42" height="42"/>
	<rect x="169" y="505" class="st0" width="42" height="42"/>
	<rect x="211" y="505" class="st0" width="42" height="42"/>
	<rect x="253" y="505" class="st0" width="42" height="42"/>
	<rect x="295" y="505" class="st0" width="42" height="42"/>
	<rect x="337" y="505" class="st0" width="42" height="42"/>
	<rect x="379" y="505" class="st0" width="42" height="42"/>
	<rect x="421" y="505" class="st0" width="42" height="42"/>
	<rect x="1" y="547" class="st0" width="42" height="42"/>
	<rect x="43" y="547" class="st0" width="42" height="42"/>
	<rect x="85" y="547" class="st0" width="42" height="42"/>
	<rect x="127" y="547" class="st0" width="42" height="42"/>
	<rect x="169" y="547" class="st0" width="42" height="42"/>
	<rect x="211" y="547" class="st0" width="42" height="42"/>
	<rect x="253" y="547" class="st0" width="42" height="42"/>
	<rect x="295" y="547" class="st0" width="42" height="42"/>
	<rect x="337" y="547" class="st0" width="42" height="42"/>
	<rect x="379" y="547" class="st0" width="42" height="42"/>
	<rect x="421" y="547" class="st0" width="42" height="42"/>
	<rect x="1" y="589" class="st0" width="42" height="42"/>
	<rect x="43" y="589" class="st0" width="42" height="42"/>
	<rect x="85" y="589" class="st0" width="42" height="42"/>
	<rect x="127" y="589" class="st0" width="42" height="42"/>
	<rect x="169" y="589" class="st0" width="42" height="42"/>
	<rect x="211" y="589" class="st0" width="42" height="42"/>
	<rect x="253" y="589" class="st0" width="42" height="42"/>
	<rect x="295" y="589" class="st0" width="42" height="42"/>
	<rect x="337" y="589" class="st0" width="42" height="42"/>
	<rect x="379" y="589" class="st0" width="42" height="42"/>
	<rect x="421" y="589" class="st0" width="42" height="42"/>
	<rect x="463" y="337" class="st0" width="42" height="42"/>
	<rect x="505" y="337" class="st0" width="42" height="42"/>
	<rect x="547" y="337" class="st0" width="42" height="42"/>
	<rect x="463" y="379" class="st2" width="42" height="42"/>
	<rect x="505" y="379" class="st2" width="42" height="42"/>
	<rect x="589" y="337" class="st0" width="42" height="42"/>
	<rect x="547" y="379" class="st0" width="42" height="42"/>
	<rect x="463" y="421" class="st2" width="42" height="42"/>
	<rect x="505" y="421" class="st2" width="42" height="42"/>
	<rect x="547" y="421" class="st2" width="42" height="42"/>
	<rect x="589" y="421" class="st2" width="42" height="42"/>
	<rect x="589" y="379" class="st0" width="42" height="42"/>
	<rect x="463" y="463" class="st0" width="42" height="42"/>
	<rect x="547" y="463" class="st2" width="42" height="42"/>
	<rect x="589" y="463" class="st2" width="42" height="42"/>
	<rect x="505" y="463" class="st0" width="42" height="42"/>
	<rect x="1" y="169" class="st0" width="42" height="42"/>
	<rect x="43" y="169" class="st0" width="42" height="42"/>
	<rect x="85" y="169" class="st0" width="42" height="42"/>
	<rect x="127" y="169" class="st0" width="42" height="42"/>
	<rect x="169" y="169" class="st0" width="42" height="42"/>
	<rect x="211" y="169" class="st0" width="42" height="42"/>
	<rect x="253" y="169" class="st0" width="42" height="42"/>
	<rect x="295" y="169" class="st0" width="42" height="42"/>
	<rect x="337" y="169" class="st0" width="42" height="42"/>
	<rect x="379" y="169" class="st0" width="42" height="42"/>
	<rect x="421" y="169" class="st0" width="42" height="42"/>
	<rect x="1" y="211" class="st0" width="42" height="42"/>
	<rect x="43" y="211" class="st0" width="42" height="42"/>
	<rect x="85" y="211" class="st0" width="42" height="42"/>
	<rect x="127" y="211" class="st0" width="42" height="42"/>
	<rect x="169" y="211" class="st0" width="42" height="42"/>
	<rect x="211" y="211" class="st0" width="42" height="42"/>
	<rect x="253" y="211" class="st0" width="42" height="42"/>
	<rect x="295" y="211" class="st0" width="42" height="42"/>
	<rect x="337" y="211" class="st0" width="42" height="42"/>
	<rect x="379" y="211" class="st0" width="42" height="42"/>
	<rect x="421" y="211" class="st0" width="42" height="42"/>
	<rect x="1" y="253" class="st0" width="42" height="42"/>
	<rect x="43" y="253" class="st0" width="42" height="42"/>
	<rect x="85" y="253" class="st0" width="42" height="42"/>
	<rect x="127" y="253" class="st0" width="42" height="42"/>
	<rect x="169" y="253" class="st0" width="42" height="42"/>
	<rect x="211" y="253" class="st0" width="42" height="42"/>
	<rect x="253" y="253" class="st0" width="42" height="42"/>
	<rect x="295" y="253" class="st0" width="42" height="42"/>
	<rect x="337" y="253" class="st0" width="42" height="42"/>
	<rect x="379" y="253" class="st0" width="42" height="42"/>
	<rect x="421" y="253" class="st0" width="42" height="42"/>
	<rect x="1" y="295" class="st0" width="42" height="42"/>
	<rect x="43" y="295" class="st0" width="42" height="42"/>
	<rect x="85" y="295" class="st0" width="42" height="42"/>
	<rect x="127" y="295" class="st0" width="42" height="42"/>
	<rect x="169" y="295" class="st0" width="42" height="42"/>
	<rect x="211" y="295" class="st0" width="42" height="42"/>
	<rect x="253" y="295" class="st0" width="42" height="42"/>
	<rect x="295" y="295" class="st0" width="42" height="42"/>
	<rect x="337" y="295" class="st0" width="42" height="42"/>
	<rect x="379" y="295" class="st0" width="42" height="42"/>
	<rect x="421" y="295" class="st0" width="42" height="42"/>
	<rect x="463" y="169" class="st0" width="42" height="42"/>
	<rect x="505" y="169" class="st0" width="42" height="42"/>
	<rect x="547" y="169" class="st0" width="42" height="42"/>
	<rect x="589" y="169" class="st0" width="42" height="42"/>
	<rect x="463" y="211" class="st0" width="42" height="42"/>
	<rect x="505" y="211" class="st0" width="42" height="42"/>
	<rect x="547" y="211" class="st0" width="42" height="42"/>
	<rect x="589" y="211" class="st0" width="42" height="42"/>
	<rect x="463" y="253" class="st0" width="42" height="42"/>
	<rect x="505" y="253" class="st0" width="42" height="42"/>
	<rect x="547" y="253" class="st0" width="42" height="42"/>
	<rect x="589" y="253" class="st0" width="42" height="42"/>
	<rect x="463" y="295" class="st0" width="42" height="42"/>
	<rect x="505" y="295" class="st0" width="42" height="42"/>
	<rect x="547" y="295" class="st0" width="42" height="42"/>
	<rect x="589" y="295" class="st0" width="42" height="42"/>
	<rect x="463" y="505" class="st0" width="42" height="42"/>
	<rect x="505" y="505" class="st0" width="42" height="42"/>
	<rect x="589" y="505" class="st2" width="42" height="42"/>
	<rect x="547" y="505" class="st0" width="42" height="42"/>
	<rect x="463" y="547" class="st0" width="42" height="42"/>
	<rect x="505" y="547" class="st0" width="42" height="42"/>
	<rect x="547" y="547" class="st0" width="42" height="42"/>
	<rect x="589" y="547" class="st0" width="42" height="42"/>
	<rect x="463" y="589" class="st0" width="42" height="42"/>
	<rect x="505" y="589" class="st0" width="42" height="42"/>
	<rect x="547" y="589" class="st0" width="42" height="42"/>
	<rect x="589" y="589" class="st0" width="42" height="42"/>
	<rect x="631" y="337" class="st0" width="42" height="42"/>
	<rect x="673" y="337" class="st0" width="42" height="42"/>
	<rect x="631" y="379" class="st0" width="42" height="42"/>
	<rect x="673" y="379" class="st0" width="42" height="42"/>
	<rect x="631" y="421" class="st0" width="42" height="42"/>
	<rect x="673" y="421" class="st0" width="42" height="42"/>
	<rect x="631" y="463" class="st0" width="42" height="42"/>
	<rect x="673" y="463" class="st0" width="42" height="42"/>
	<rect x="631" y="169" class="st0" width="42" height="42"/>
	<rect x="673" y="169" class="st0" width="42" height="42"/>
	<rect x="631" y="211" class="st0" width="42" height="42"/>
	<rect x="673" y="211" class="st0" width="42" height="42"/>
	<rect x="631" y="253" class="st0" width="42" height="42"/>
	<rect x="673" y="253" class="st0" width="42" height="42"/>
	<rect x="631" y="295" class="st0" width="42" height="42"/>
	<rect x="673" y="295" class="st0" width="42" height="42"/>
	<rect x="631" y="505" class="st0" width="42" height="42"/>
	<rect x="673" y="505" class="st0" width="42" height="42"/>
	<rect x="631" y="547" class="st0" width="42" height="42"/>
	<rect x="673" y="547" class="st0" width="42" height="42"/>
	<rect x="631" y="589" class="st0" width="42" height="42"/>
	<rect x="673" y="589" class="st0" width="42" height="42"/>
	<rect x="1" y="1" class="st0" width="42" height="42"/>
	<rect x="43" y="1" class="st0" width="42" height="42"/>
	<rect x="85" y="1" class="st0" width="42" height="42"/>
	<rect x="127" y="1" class="st0" width="42" height="42"/>
	<rect x="169" y="1" class="st0" width="42" height="42"/>
	<rect x="211" y="1" class="st0" width="42" height="42"/>
	<rect x="253" y="1" class="st0" width="42" height="42"/>
	<rect x="295" y="1" class="st0" width="42" height="42"/>
	<rect x="337" y="1" class="st0" width="42" height="42"/>
	<rect x="379" y="1" class="st0" width="42" height="42"/>
	<rect x="421" y="1" class="st0" width="42" height="42"/>
	<rect x="1" y="43" class="st0" width="42" height="42"/>
	<rect x="43" y="43" class="st0" width="42" height="42"/>
	<rect x="85" y="43" class="st0" width="42" height="42"/>
	<rect x="127" y="43" class="st0" width="42" height="42"/>
	<rect x="169" y="43" class="st0" width="42" height="42"/>
	<rect x="211" y="43" class="st0" width="42" height="42"/>
	<rect x="253" y="43" class="st0" width="42" height="42"/>
	<rect x="295" y="43" class="st0" width="42" height="42"/>
	<rect x="337" y="43" class="st0" width="42" height="42"/>
	<rect x="379" y="43" class="st0" width="42" height="42"/>
	<rect x="421" y="43" class="st0" width="42" height="42"/>
	<rect x="1" y="85" class="st0" width="42" height="42"/>
	<rect x="43" y="85" class="st0" width="42" height="42"/>
	<rect x="85" y="85" class="st0" width="42" height="42"/>
	<rect x="127" y="85" class="st0" width="42" height="42"/>
	<rect x="169" y="85" class="st0" width="42" height="42"/>
	<rect x="211" y="85" class="st0" width="42" height="42"/>
	<rect x="253" y="85" class="st0" width="42" height="42"/>
	<rect x="295" y="85" class="st0" width="42" height="42"/>
	<rect x="337" y="85" class="st0" width="42" height="42"/>
	<rect x="379" y="85" class="st0" width="42" height="42"/>
	<rect x="421" y="85" class="st0" width="42" height="42"/>
	<rect x="1" y="127" class="st0" width="42" height="42"/>
	<rect x="43" y="127" class="st0" width="42" height="42"/>
	<rect x="85" y="127" class="st0" width="42" height="42"/>
	<rect x="127" y="127" class="st0" width="42" height="42"/>
	<rect x="169" y="127" class="st0" width="42" height="42"/>
	<rect x="211" y="127" class="st0" width="42" height="42"/>
	<rect x="253" y="127" class="st0" width="42" height="42"/>
	<rect x="295" y="127" class="st0" width="42" height="42"/>
	<rect x="337" y="127" class="st0" width="42" height="42"/>
	<rect x="379" y="127" class="st0" width="42" height="42"/>
	<rect x="421" y="127" class="st0" width="42" height="42"/>
	<rect x="463" y="1" class="st0" width="42" height="42"/>
	<rect x="505" y="1" class="st0" width="42" height="42"/>
	<rect x="547" y="1" class="st0" width="42" height="42"/>
	<rect x="589" y="1" class="st0" width="42" height="42"/>
	<rect x="463" y="43" class="st0" width="42" height="42"/>
	<rect x="505" y="43" class="st0" width="42" height="42"/>
	<rect x="547" y="43" class="st0" width="42" height="42"/>
	<rect x="589" y="43" class="st0" width="42" height="42"/>
	<rect x="463" y="85" class="st0" width="42" height="42"/>
	<rect x="505" y="85" class="st0" width="42" height="42"/>
	<rect x="547" y="85" class="st0" width="42" height="42"/>
	<rect x="589" y="85" class="st0" width="42" height="42"/>
	<rect x="463" y="127" class="st0" width="42" height="42"/>
	<rect x="505" y="127" class="st0" width="42" height="42"/>
	<rect x="547" y="127" class="st0" width="42" height="42"/>
	<rect x="589" y="127" class="st0" width="42" height="42"/>
	<rect x="631" y="1" class="st0" width="42" height="42"/>
	<rect x="673" y="1" class="st0" width="42" height="42"/>
	<rect x="631" y="43" class="st0" width="42" height="42"/>
	<rect x="673" y="43" class="st0" width="42" height="42"/>
	<rect x="631" y="85" class="st0" width="42" height="42"/>
	<rect x="673" y="85" class="st0" width="42" height="42"/>
	<rect x="631" y="127" class="st0" width="42" height="42"/>
	<rect x="673" y="127" class="st0" width="42" height="42"/>
</g>
<g id="numbers__x28_vector_x29_">
	<path class="st3" d="M13.6,28.8V22h5v-3.4h-3.3v1.7h-1.7v-3.4h6.6v6.8h-5v3.4h3.3v-1.7h1.7v3.4H13.6z"/>
	<path class="st3" d="M21.9,28.8V16.9h6.6v11.9H21.9z M23.5,27.1h3.3v-8.5h-3.3V27.1z"/>
	<path class="st3" d="M57.2,18.6v-1.7h3.3v11.9h-1.7V18.6H57.2z"/>
	<path class="st3" d="M62.2,23.7v-6.8h6.6v11.9h-1.7v-5.1H62.2z M63.9,22h3.3v-3.4h-3.3V22z"/>
	<path class="st3" d="M99.2,18.6v-1.7h3.3v11.9h-1.7V18.6H99.2z"/>
	<path class="st3" d="M104.2,28.8V16.9h6.6v11.9H104.2z M105.9,18.6V22h3.3v-3.4H105.9z M105.9,27.1h3.3v-3.4h-3.3V27.1z"/>
	<path class="st3" d="M141.2,18.6v-1.7h3.3v11.9h-1.7V18.6H141.2z"/>
	<path class="st3" d="M146.2,20.3v-3.4h6.6v11.9h-1.7V18.6h-3.3v1.7H146.2z"/>
	<path class="st3" d="M183.2,18.6v-1.7h3.3v11.9h-1.7V18.6H183.2z"/>
	<path class="st3" d="M188.2,28.8V16.9h6.6v3.4h-1.7v-1.7h-3.3V22h5v6.8H188.2z M189.9,27.1h3.3v-3.4h-3.3V27.1z"/>
	<path class="st3" d="M225.2,18.6v-1.7h3.3v11.9h-1.7V18.6H225.2z"/>
	<path class="st3" d="M230.2,23.7v-6.8h6.6v3.4h-1.7v-1.7h-3.3V22h5v6.8h-6.6v-3.4h1.7v1.7h3.3v-3.4H230.2z"/>
	<path class="st3" d="M267.2,18.6v-1.7h3.3v11.9h-1.7V18.6H267.2z"/>
	<path class="st3" d="M272.2,23.7v-6.8h1.7V22h3.3v-5.1h1.7v11.9h-1.7v-5.1H272.2z"/>
	<path class="st3" d="M309.2,18.6v-1.7h3.3v11.9h-1.7V18.6H309.2z"/>
	<path class="st3" d="M315.9,23.7V22h3.3v-3.4h-3.3v1.7h-1.7v-3.4h6.6v11.9h-6.6v-3.4h1.7v1.7h3.3v-3.4H315.9z"/>
	<path class="st3" d="M351.2,18.6v-1.7h3.3v11.9h-1.7V18.6H351.2z"/>
	<path class="st3" d="M356.2,28.8V22h5v-3.4h-3.3v1.7h-1.7v-3.4h6.6v6.8h-5v3.4h3.3v-1.7h1.7v3.4H356.2z"/>
	<path class="st3" d="M394.9,18.6v-1.7h3.3v11.9h-1.7V18.6H394.9z"/>
	<path class="st3" d="M399.9,18.6v-1.7h3.3v11.9h-1.7V18.6H399.9z"/>
	<path class="st3" d="M435.2,18.6v-1.7h3.3v11.9h-1.7V18.6H435.2z"/>
	<path class="st3" d="M440.2,28.8V16.9h6.6v11.9H440.2z M441.9,27.1h3.3v-8.5h-3.3V27.1z"/>
	<path class="st3" d="M479.7,23.7v-6.8h6.6v11.9h-1.7v-5.1H479.7z M481.4,22h3.3v-3.4h-3.3V22z"/>
	<path class="st3" d="M521.7,23.7v-6.8h6.6v11.9h-1.7v-5.1H521.7z M523.4,22h3.3v-3.4h-3.3V22z"/>
	<path class="st3" d="M561.2,18.6v-1.7h3.3v11.9h-1.7V18.6H561.2z"/>
	<path class="st3" d="M566.2,28.8V16.9h6.6v11.9H566.2z M567.9,27.1h3.3v-8.5h-3.3V27.1z"/>
	<path class="st3" d="M603.2,18.6v-1.7h3.3v11.9h-1.7V18.6H603.2z"/>
	<path class="st3" d="M608.2,28.8V16.9h6.6v11.9H608.2z M609.9,27.1h3.3v-8.5h-3.3V27.1z"/>
	<path class="st3" d="M646.9,18.6v-1.7h3.3v11.9h-1.7V18.6H646.9z"/>
	<path class="st3" d="M651.9,18.6v-1.7h3.3v11.9h-1.7V18.6H651.9z"/>
	<path class="st3" d="M687.2,18.6v-1.7h3.3v11.9h-1.7V18.6H687.2z"/>
	<path class="st3" d="M692.2,28.8V22h5v-3.4h-3.3v1.7h-1.7v-3.4h6.6v6.8h-5v3.4h3.3v-1.7h1.7v3.4H692.2z"/>
	<path class="st3" d="M15.2,60.6v-1.7h3.3v11.9h-1.7V60.6H15.2z"/>
	<path class="st3" d="M20.2,65.7v-6.8h6.6v11.9h-1.7v-5.1H20.2z M21.9,64h3.3v-3.4h-3.3V64z"/>
	<path class="st3" d="M57.2,60.6v-1.7h3.3v11.9h-1.7V60.6H57.2z"/>
	<path class="st3" d="M62.2,70.8V58.9h6.6v11.9H62.2z M63.9,60.6V64h3.3v-3.4H63.9z M63.9,69.1h3.3v-3.4h-3.3V69.1z"/>
	<path class="st3" d="M99.2,60.6v-1.7h3.3v11.9h-1.7V60.6H99.2z"/>
	<path class="st3" d="M104.2,62.3v-3.4h6.6v11.9h-1.7V60.6h-3.3v1.7H104.2z"/>
	<path class="st3" d="M141.2,60.6v-1.7h3.3v11.9h-1.7V60.6H141.2z"/>
	<path class="st3" d="M146.2,70.8V58.9h6.6v3.4h-1.7v-1.7h-3.3V64h5v6.8H146.2z M147.9,69.1h3.3v-3.4h-3.3V69.1z"/>
	<path class="st3" d="M183.2,60.6v-1.7h3.3v11.9h-1.7V60.6H183.2z"/>
	<path class="st3" d="M188.2,65.7v-6.8h6.6v3.4h-1.7v-1.7h-3.3V64h5v6.8h-6.6v-3.4h1.7v1.7h3.3v-3.4H188.2z"/>
	<path class="st3" d="M225.2,60.6v-1.7h3.3v11.9h-1.7V60.6H225.2z"/>
	<path class="st3" d="M230.2,65.7v-6.8h1.7V64h3.3v-5.1h1.7v11.9h-1.7v-5.1H230.2z"/>
	<path class="st3" d="M267.2,60.6v-1.7h3.3v11.9h-1.7V60.6H267.2z"/>
	<path class="st3" d="M273.9,65.7V64h3.3v-3.4h-3.3v1.7h-1.7v-3.4h6.6v11.9h-6.6v-3.4h1.7v1.7h3.3v-3.4H273.9z"/>
	<path class="st3" d="M309.2,60.6v-1.7h3.3v11.9h-1.7V60.6H309.2z"/>
	<path class="st3" d="M314.2,70.8V64h5v-3.4h-3.3v1.7h-1.7v-3.4h6.6v6.8h-5v3.4h3.3v-1.7h1.7v3.4H314.2z"/>
	<path class="st3" d="M352.9,60.6v-1.7h3.3v11.9h-1.7V60.6H352.9z"/>
	<path class="st3" d="M357.9,60.6v-1.7h3.3v11.9h-1.7V60.6H357.9z"/>
	<path class="st3" d="M393.2,60.6v-1.7h3.3v11.9h-1.7V60.6H393.2z"/>
	<path class="st3" d="M398.2,70.8V58.9h6.6v11.9H398.2z M399.9,69.1h3.3v-8.5h-3.3V69.1z"/>
	<path class="st3" d="M437.7,65.7v-6.8h6.6v11.9h-1.7v-5.1H437.7z M439.4,64h3.3v-3.4h-3.3V64z"/>
	<path class="st3" d="M479.7,70.8V58.9h6.6v11.9H479.7z M481.4,60.6V64h3.3v-3.4H481.4z M481.4,69.1h3.3v-3.4h-3.3V69.1z"/>
	<path class="st3" d="M521.7,70.8V58.9h6.6v11.9H521.7z M523.4,60.6V64h3.3v-3.4H523.4z M523.4,69.1h3.3v-3.4h-3.3V69.1z"/>
	<path class="st3" d="M563.7,65.7v-6.8h6.6v11.9h-1.7v-5.1H563.7z M565.4,64h3.3v-3.4h-3.3V64z"/>
	<path class="st3" d="M605.7,65.7v-6.8h6.6v11.9h-1.7v-5.1H605.7z M607.4,64h3.3v-3.4h-3.3V64z"/>
	<path class="st3" d="M645.2,60.6v-1.7h3.3v11.9h-1.7V60.6H645.2z"/>
	<path class="st3" d="M650.2,70.8V58.9h6.6v11.9H650.2z M651.9,69.1h3.3v-8.5h-3.3V69.1z"/>
	<path class="st3" d="M688.9,60.6v-1.7h3.3v11.9h-1.7V60.6H688.9z"/>
	<path class="st3" d="M693.9,60.6v-1.7h3.3v11.9h-1.7V60.6H693.9z"/>
	<path class="st3" d="M15.2,102.6v-1.7h3.3v11.9h-1.7v-10.2H15.2z"/>
	<path class="st3" d="M20.2,112.8v-11.9h6.6v11.9H20.2z M21.9,102.6v3.4h3.3v-3.4H21.9z M21.9,111.1h3.3v-3.4h-3.3V111.1z"/>
	<path class="st3" d="M57.2,102.6v-1.7h3.3v11.9h-1.7v-10.2H57.2z"/>
	<path class="st3" d="M62.2,104.3v-3.4h6.6v11.9h-1.7v-10.2h-3.3v1.7H62.2z"/>
	<path class="st3" d="M99.2,102.6v-1.7h3.3v11.9h-1.7v-10.2H99.2z"/>
	<path class="st3" d="M104.2,112.8v-11.9h6.6v3.4h-1.7v-1.7h-3.3v3.4h5v6.8H104.2z M105.9,111.1h3.3v-3.4h-3.3V111.1z"/>
	<path class="st3" d="M141.2,102.6v-1.7h3.3v11.9h-1.7v-10.2H141.2z"/>
	<path class="st3" d="M146.2,107.7v-6.8h6.6v3.4h-1.7v-1.7h-3.3v3.4h5v6.8h-6.6v-3.4h1.7v1.7h3.3v-3.4H146.2z"/>
	<path class="st3" d="M183.2,102.6v-1.7h3.3v11.9h-1.7v-10.2H183.2z"/>
	<path class="st3" d="M188.2,107.7v-6.8h1.7v5.1h3.3v-5.1h1.7v11.9h-1.7v-5.1H188.2z"/>
	<path class="st3" d="M225.2,102.6v-1.7h3.3v11.9h-1.7v-10.2H225.2z"/>
	<path class="st3" d="M231.9,107.7V106h3.3v-3.4h-3.3v1.7h-1.7v-3.4h6.6v11.9h-6.6v-3.4h1.7v1.7h3.3v-3.4H231.9z"/>
	<path class="st3" d="M267.2,102.6v-1.7h3.3v11.9h-1.7v-10.2H267.2z"/>
	<path class="st3" d="M272.2,112.8V106h5v-3.4h-3.3v1.7h-1.7v-3.4h6.6v6.8h-5v3.4h3.3v-1.7h1.7v3.4H272.2z"/>
	<path class="st3" d="M310.9,102.6v-1.7h3.3v11.9h-1.7v-10.2H310.9z"/>
	<path class="st3" d="M315.9,102.6v-1.7h3.3v11.9h-1.7v-10.2H315.9z"/>
	<path class="st3" d="M351.2,102.6v-1.7h3.3v11.9h-1.7v-10.2H351.2z"/>
	<path class="st3" d="M356.2,112.8v-11.9h6.6v11.9H356.2z M357.9,111.1h3.3v-8.5h-3.3V111.1z"/>
	<path class="st3" d="M395.7,107.7v-6.8h6.6v11.9h-1.7v-5.1H395.7z M397.4,106h3.3v-3.4h-3.3V106z"/>
	<path class="st3" d="M437.7,112.8v-11.9h6.6v11.9H437.7z M439.4,102.6v3.4h3.3v-3.4H439.4z M439.4,111.1h3.3v-3.4h-3.3V111.1z"/>
	<path class="st3" d="M479.7,104.3v-3.4h6.6v11.9h-1.7v-10.2h-3.3v1.7H479.7z"/>
	<path class="st3" d="M521.7,104.3v-3.4h6.6v11.9h-1.7v-10.2h-3.3v1.7H521.7z"/>
	<path class="st3" d="M563.7,112.8v-11.9h6.6v11.9H563.7z M565.4,102.6v3.4h3.3v-3.4H565.4z M565.4,111.1h3.3v-3.4h-3.3V111.1z"/>
	<path class="st3" d="M605.7,112.8v-11.9h6.6v11.9H605.7z M607.4,102.6v3.4h3.3v-3.4H607.4z M607.4,111.1h3.3v-3.4h-3.3V111.1z"/>
	<path class="st3" d="M647.7,107.7v-6.8h6.6v11.9h-1.7v-5.1H647.7z M649.4,106h3.3v-3.4h-3.3V106z"/>
	<path class="st3" d="M687.2,102.6v-1.7h3.3v11.9h-1.7v-10.2H687.2z"/>
	<path class="st3" d="M692.2,112.8v-11.9h6.6v11.9H692.2z M693.9,111.1h3.3v-8.5h-3.3V111.1z"/>
	<path class="st3" d="M15.2,144.6v-1.7h3.3v11.9h-1.7v-10.2H15.2z"/>
	<path class="st3" d="M20.2,146.3v-3.4h6.6v11.9h-1.7v-10.2h-3.3v1.7H20.2z"/>
	<path class="st3" d="M57.2,144.6v-1.7h3.3v11.9h-1.7v-10.2H57.2z"/>
	<path class="st3" d="M62.2,154.8v-11.9h6.6v3.4h-1.7v-1.7h-3.3v3.4h5v6.8H62.2z M63.9,153.1h3.3v-3.4h-3.3V153.1z"/>
	<path class="st3" d="M99.2,144.6v-1.7h3.3v11.9h-1.7v-10.2H99.2z"/>
	<path class="st3" d="M104.2,149.7v-6.8h6.6v3.4h-1.7v-1.7h-3.3v3.4h5v6.8h-6.6v-3.4h1.7v1.7h3.3v-3.4H104.2z"/>
	<path class="st3" d="M141.2,144.6v-1.7h3.3v11.9h-1.7v-10.2H141.2z"/>
	<path class="st3" d="M146.2,149.7v-6.8h1.7v5.1h3.3v-5.1h1.7v11.9h-1.7v-5.1H146.2z"/>
	<path class="st3" d="M183.2,144.6v-1.7h3.3v11.9h-1.7v-10.2H183.2z"/>
	<path class="st3" d="M189.9,149.7V148h3.3v-3.4h-3.3v1.7h-1.7v-3.4h6.6v11.9h-6.6v-3.4h1.7v1.7h3.3v-3.4H189.9z"/>
	<path class="st3" d="M225.2,144.6v-1.7h3.3v11.9h-1.7v-10.2H225.2z"/>
	<path class="st3" d="M230.2,154.8V148h5v-3.4h-3.3v1.7h-1.7v-3.4h6.6v6.8h-5v3.4h3.3v-1.7h1.7v3.4H230.2z"/>
	<path class="st3" d="M268.9,144.6v-1.7h3.3v11.9h-1.7v-10.2H268.9z"/>
	<path class="st3" d="M273.9,144.6v-1.7h3.3v11.9h-1.7v-10.2H273.9z"/>
	<path class="st3" d="M309.2,144.6v-1.7h3.3v11.9h-1.7v-10.2H309.2z"/>
	<path class="st3" d="M314.2,154.8v-11.9h6.6v11.9H314.2z M315.9,153.1h3.3v-8.5h-3.3V153.1z"/>
	<path class="st3" d="M353.7,149.7v-6.8h6.6v11.9h-1.7v-5.1H353.7z M355.4,148h3.3v-3.4h-3.3V148z"/>
	<path class="st3" d="M395.7,154.8v-11.9h6.6v11.9H395.7z M397.4,144.6v3.4h3.3v-3.4H397.4z M397.4,153.1h3.3v-3.4h-3.3V153.1z"/>
	<path class="st3" d="M437.7,146.3v-3.4h6.6v11.9h-1.7v-10.2h-3.3v1.7H437.7z"/>
	<path class="st3" d="M479.7,154.8v-11.9h6.6v3.4h-1.7v-1.7h-3.3v3.4h5v6.8H479.7z M481.4,153.1h3.3v-3.4h-3.3V153.1z"/>
	<path class="st3" d="M521.7,154.8v-11.9h6.6v3.4h-1.7v-1.7h-3.3v3.4h5v6.8H521.7z M523.4,153.1h3.3v-3.4h-3.3V153.1z"/>
	<path class="st3" d="M563.7,146.3v-3.4h6.6v11.9h-1.7v-10.2h-3.3v1.7H563.7z"/>
	<path class="st3" d="M605.7,146.3v-3.4h6.6v11.9h-1.7v-10.2h-3.3v1.7H605.7z"/>
	<path class="st3" d="M647.7,154.8v-11.9h6.6v11.9H647.7z M649.4,144.6v3.4h3.3v-3.4H649.4z M649.4,153.1h3.3v-3.4h-3.3V153.1z"/>
	<path class="st3" d="M689.7,149.7v-6.8h6.6v11.9h-1.7v-5.1H689.7z M691.4,148h3.3v-3.4h-3.3V148z"/>
	<path class="st3" d="M15.2,186.6v-1.7h3.3v11.9h-1.7v-10.2H15.2z"/>
	<path class="st3" d="M20.2,196.8v-11.9h6.6v3.4h-1.7v-1.7h-3.3v3.4h5v6.8H20.2z M21.9,195.1h3.3v-3.4h-3.3V195.1z"/>
	<path class="st3" d="M57.2,186.6v-1.7h3.3v11.9h-1.7v-10.2H57.2z"/>
	<path class="st3" d="M62.2,191.7v-6.8h6.6v3.4h-1.7v-1.7h-3.3v3.4h5v6.8h-6.6v-3.4h1.7v1.7h3.3v-3.4H62.2z"/>
	<path class="st3" d="M99.2,186.6v-1.7h3.3v11.9h-1.7v-10.2H99.2z"/>
	<path class="st3" d="M104.2,191.7v-6.8h1.7v5.1h3.3v-5.1h1.7v11.9h-1.7v-5.1H104.2z"/>
	<path class="st3" d="M141.2,186.6v-1.7h3.3v11.9h-1.7v-10.2H141.2z"/>
	<path class="st3" d="M147.9,191.7V190h3.3v-3.4h-3.3v1.7h-1.7v-3.4h6.6v11.9h-6.6v-3.4h1.7v1.7h3.3v-3.4H147.9z"/>
	<path class="st3" d="M183.2,186.6v-1.7h3.3v11.9h-1.7v-10.2H183.2z"/>
	<path class="st3" d="M188.2,196.8V190h5v-3.4h-3.3v1.7h-1.7v-3.4h6.6v6.8h-5v3.4h3.3v-1.7h1.7v3.4H188.2z"/>
	<path class="st3" d="M226.9,186.6v-1.7h3.3v11.9h-1.7v-10.2H226.9z"/>
	<path class="st3" d="M231.9,186.6v-1.7h3.3v11.9h-1.7v-10.2H231.9z"/>
	<path class="st3" d="M267.2,186.6v-1.7h3.3v11.9h-1.7v-10.2H267.2z"/>
	<path class="st3" d="M272.2,196.8v-11.9h6.6v11.9H272.2z M273.9,195.1h3.3v-8.5h-3.3V195.1z"/>
	<path class="st3" d="M311.7,191.7v-6.8h6.6v11.9h-1.7v-5.1H311.7z M313.4,190h3.3v-3.4h-3.3V190z"/>
	<path class="st3" d="M353.7,196.8v-11.9h6.6v11.9H353.7z M355.4,186.6v3.4h3.3v-3.4H355.4z M355.4,195.1h3.3v-3.4h-3.3V195.1z"/>
	<path class="st3" d="M395.7,188.3v-3.4h6.6v11.9h-1.7v-10.2h-3.3v1.7H395.7z"/>
	<path class="st3" d="M437.7,196.8v-11.9h6.6v3.4h-1.7v-1.7h-3.3v3.4h5v6.8H437.7z M439.4,195.1h3.3v-3.4h-3.3V195.1z"/>
	<path class="st3" d="M479.7,191.7v-6.8h6.6v3.4h-1.7v-1.7h-3.3v3.4h5v6.8h-6.6v-3.4h1.7v1.7h3.3v-3.4H479.7z"/>
	<path class="st3" d="M521.7,191.7v-6.8h6.6v3.4h-1.7v-1.7h-3.3v3.4h5v6.8h-6.6v-3.4h1.7v1.7h3.3v-3.4H521.7z"/>
	<path class="st3" d="M563.7,196.8v-11.9h6.6v3.4h-1.7v-1.7h-3.3v3.4h5v6.8H563.7z M565.4,195.1h3.3v-3.4h-3.3V195.1z"/>
	<path class="st3" d="M605.7,196.8v-11.9h6.6v3.4h-1.7v-1.7h-3.3v3.4h5v6.8H605.7z M607.4,195.1h3.3v-3.4h-3.3V195.1z"/>
	<path class="st3" d="M647.7,188.3v-3.4h6.6v11.9h-1.7v-10.2h-3.3v1.7H647.7z"/>
	<path class="st3" d="M689.7,196.8v-11.9h6.6v11.9H689.7z M691.4,186.6v3.4h3.3v-3.4H691.4z M691.4,195.1h3.3v-3.4h-3.3V195.1z"/>
	<path class="st3" d="M15.2,228.6v-1.7h3.3v11.9h-1.7v-10.2H15.2z"/>
	<path class="st3" d="M20.2,233.7v-6.8h6.6v3.4h-1.7v-1.7h-3.3v3.4h5v6.8h-6.6v-3.4h1.7v1.7h3.3v-3.4H20.2z"/>
	<path class="st3" d="M57.2,228.6v-1.7h3.3v11.9h-1.7v-10.2H57.2z"/>
	<path class="st3" d="M62.2,233.7v-6.8h1.7v5.1h3.3v-5.1h1.7v11.9h-1.7v-5.1H62.2z"/>
	<path class="st3" d="M99.2,228.6v-1.7h3.3v11.9h-1.7v-10.2H99.2z"/>
	<path class="st3" d="M105.9,233.7V232h3.3v-3.4h-3.3v1.7h-1.7v-3.4h6.6v11.9h-6.6v-3.4h1.7v1.7h3.3v-3.4H105.9z"/>
	<path class="st3" d="M141.2,228.6v-1.7h3.3v11.9h-1.7v-10.2H141.2z"/>
	<path class="st3" d="M146.2,238.8V232h5v-3.4h-3.3v1.7h-1.7v-3.4h6.6v6.8h-5v3.4h3.3v-1.7h1.7v3.4H146.2z"/>
	<path class="st3" d="M184.9,228.6v-1.7h3.3v11.9h-1.7v-10.2H184.9z"/>
	<path class="st3" d="M189.9,228.6v-1.7h3.3v11.9h-1.7v-10.2H189.9z"/>
	<path class="st3" d="M225.2,228.6v-1.7h3.3v11.9h-1.7v-10.2H225.2z"/>
	<path class="st3" d="M230.2,238.8v-11.9h6.6v11.9H230.2z M231.9,237.1h3.3v-8.5h-3.3V237.1z"/>
	<path class="st3" d="M269.7,233.7v-6.8h6.6v11.9h-1.7v-5.1H269.7z M271.4,232h3.3v-3.4h-3.3V232z"/>
	<path class="st3" d="M311.7,238.8v-11.9h6.6v11.9H311.7z M313.4,228.6v3.4h3.3v-3.4H313.4z M313.4,237.1h3.3v-3.4h-3.3V237.1z"/>
	<path class="st3" d="M353.7,230.3v-3.4h6.6v11.9h-1.7v-10.2h-3.3v1.7H353.7z"/>
	<path class="st3" d="M395.7,238.8v-11.9h6.6v3.4h-1.7v-1.7h-3.3v3.4h5v6.8H395.7z M397.4,237.1h3.3v-3.4h-3.3V237.1z"/>
	<path class="st3" d="M437.7,233.7v-6.8h6.6v3.4h-1.7v-1.7h-3.3v3.4h5v6.8h-6.6v-3.4h1.7v1.7h3.3v-3.4H437.7z"/>
	<path class="st3" d="M479.7,233.7v-6.8h1.7v5.1h3.3v-5.1h1.7v11.9h-1.7v-5.1H479.7z"/>
	<path class="st3" d="M521.7,233.7v-6.8h1.7v5.1h3.3v-5.1h1.7v11.9h-1.7v-5.1H521.7z"/>
	<path class="st3" d="M563.7,233.7v-6.8h6.6v3.4h-1.7v-1.7h-3.3v3.4h5v6.8h-6.6v-3.4h1.7v1.7h3.3v-3.4H563.7z"/>
	<path class="st3" d="M605.7,233.7v-6.8h6.6v3.4h-1.7v-1.7h-3.3v3.4h5v6.8h-6.6v-3.4h1.7v1.7h3.3v-3.4H605.7z"/>
	<path class="st3" d="M647.7,238.8v-11.9h6.6v3.4h-1.7v-1.7h-3.3v3.4h5v6.8H647.7z M649.4,237.1h3.3v-3.4h-3.3V237.1z"/>
	<path class="st3" d="M689.7,230.3v-3.4h6.6v11.9h-1.7v-10.2h-3.3v1.7H689.7z"/>
	<path class="st3" d="M15.2,270.6v-1.7h3.3v11.9h-1.7v-10.2H15.2z"/>
	<path class="st3" d="M20.2,275.7v-6.8h1.7v5.1h3.3v-5.1h1.7v11.9h-1.7v-5.1H20.2z"/>
	<path class="st3" d="M57.2,270.6v-1.7h3.3v11.9h-1.7v-10.2H57.2z"/>
	<path class="st3" d="M63.9,275.7V274h3.3v-3.4h-3.3v1.7h-1.7v-3.4h6.6v11.9h-6.6v-3.4h1.7v1.7h3.3v-3.4H63.9z"/>
	<path class="st3" d="M99.2,270.6v-1.7h3.3v11.9h-1.7v-10.2H99.2z"/>
	<path class="st3" d="M104.2,280.8V274h5v-3.4h-3.3v1.7h-1.7v-3.4h6.6v6.8h-5v3.4h3.3v-1.7h1.7v3.4H104.2z"/>
	<path class="st3" d="M142.9,270.6v-1.7h3.3v11.9h-1.7v-10.2H142.9z"/>
	<path class="st3" d="M147.9,270.6v-1.7h3.3v11.9h-1.7v-10.2H147.9z"/>
	<path class="st3" d="M183.2,270.6v-1.7h3.3v11.9h-1.7v-10.2H183.2z"/>
	<path class="st3" d="M188.2,280.8v-11.9h6.6v11.9H188.2z M189.9,279.1h3.3v-8.5h-3.3V279.1z"/>
	<path class="st3" d="M227.7,275.7v-6.8h6.6v11.9h-1.7v-5.1H227.7z M229.4,274h3.3v-3.4h-3.3V274z"/>
	<path class="st3" d="M269.7,280.8v-11.9h6.6v11.9H269.7z M271.4,270.6v3.4h3.3v-3.4H271.4z M271.4,279.1h3.3v-3.4h-3.3V279.1z"/>
	<path class="st3" d="M311.7,272.3v-3.4h6.6v11.9h-1.7v-10.2h-3.3v1.7H311.7z"/>
	<path class="st3" d="M353.7,280.8v-11.9h6.6v3.4h-1.7v-1.7h-3.3v3.4h5v6.8H353.7z M355.4,279.1h3.3v-3.4h-3.3V279.1z"/>
	<path class="st3" d="M395.7,275.7v-6.8h6.6v3.4h-1.7v-1.7h-3.3v3.4h5v6.8h-6.6v-3.4h1.7v1.7h3.3v-3.4H395.7z"/>
	<path class="st3" d="M437.7,275.7v-6.8h1.7v5.1h3.3v-5.1h1.7v11.9h-1.7v-5.1H437.7z"/>
	<path class="st3" d="M481.4,275.7V274h3.3v-3.4h-3.3v1.7h-1.7v-3.4h6.6v11.9h-6.6v-3.4h1.7v1.7h3.3v-3.4H481.4z"/>
	<path class="st3" d="M523.4,275.7V274h3.3v-3.4h-3.3v1.7h-1.7v-3.4h6.6v11.9h-6.6v-3.4h1.7v1.7h3.3v-3.4H523.4z"/>
	<path class="st3" d="M563.7,275.7v-6.8h1.7v5.1h3.3v-5.1h1.7v11.9h-1.7v-5.1H563.7z"/>
	<path class="st3" d="M605.7,275.7v-6.8h1.7v5.1h3.3v-5.1h1.7v11.9h-1.7v-5.1H605.7z"/>
	<path class="st3" d="M647.7,275.7v-6.8h6.6v3.4h-1.7v-1.7h-3.3v3.4h5v6.8h-6.6v-3.4h1.7v1.7h3.3v-3.4H647.7z"/>
	<path class="st3" d="M689.7,280.8v-11.9h6.6v3.4h-1.7v-1.7h-3.3v3.4h5v6.8H689.7z M691.4,279.1h3.3v-3.4h-3.3V279.1z"/>
	<path class="st3" d="M15.2,312.6v-1.7h3.3v11.9h-1.7v-10.2H15.2z"/>
	<path class="st3" d="M21.9,317.7V316h3.3v-3.4h-3.3v1.7h-1.7v-3.4h6.6v11.9h-6.6v-3.4h1.7v1.7h3.3v-3.4H21.9z"/>
	<path class="st3" d="M57.2,312.6v-1.7h3.3v11.9h-1.7v-10.2H57.2z"/>
	<path class="st3" d="M62.2,322.8V316h5v-3.4h-3.3v1.7h-1.7v-3.4h6.6v6.8h-5v3.4h3.3v-1.7h1.7v3.4H62.2z"/>
	<path class="st3" d="M100.9,312.6v-1.7h3.3v11.9h-1.7v-10.2H100.9z"/>
	<path class="st3" d="M105.9,312.6v-1.7h3.3v11.9h-1.7v-10.2H105.9z"/>
	<path class="st3" d="M141.2,312.6v-1.7h3.3v11.9h-1.7v-10.2H141.2z"/>
	<path class="st3" d="M146.2,322.8v-11.9h6.6v11.9H146.2z M147.9,321.1h3.3v-8.5h-3.3V321.1z"/>
	<path class="st3" d="M185.7,317.7v-6.8h6.6v11.9h-1.7v-5.1H185.7z M187.4,316h3.3v-3.4h-3.3V316z"/>
	<path class="st3" d="M227.7,322.8v-11.9h6.6v11.9H227.7z M229.4,312.6v3.4h3.3v-3.4H229.4z M229.4,321.1h3.3v-3.4h-3.3V321.1z"/>
	<path class="st3" d="M269.7,314.3v-3.4h6.6v11.9h-1.7v-10.2h-3.3v1.7H269.7z"/>
	<path class="st3" d="M311.7,322.8v-11.9h6.6v3.4h-1.7v-1.7h-3.3v3.4h5v6.8H311.7z M313.4,321.1h3.3v-3.4h-3.3V321.1z"/>
	<path class="st3" d="M353.7,317.7v-6.8h6.6v3.4h-1.7v-1.7h-3.3v3.4h5v6.8h-6.6v-3.4h1.7v1.7h3.3v-3.4H353.7z"/>
	<path class="st3" d="M395.7,317.7v-6.8h1.7v5.1h3.3v-5.1h1.7v11.9h-1.7v-5.1H395.7z"/>
	<path class="st3" d="M439.4,317.7V316h3.3v-3.4h-3.3v1.7h-1.7v-3.4h6.6v11.9h-6.6v-3.4h1.7v1.7h3.3v-3.4H439.4z"/>
	<path class="st3" d="M479.7,322.8V316h5v-3.4h-3.3v1.7h-1.7v-3.4h6.6v6.8h-5v3.4h3.3v-1.7h1.7v3.4H479.7z"/>
	<path class="st3" d="M521.7,322.8V316h5v-3.4h-3.3v1.7h-1.7v-3.4h6.6v6.8h-5v3.4h3.3v-1.7h1.7v3.4H521.7z"/>
	<path class="st3" d="M565.4,317.7V316h3.3v-3.4h-3.3v1.7h-1.7v-3.4h6.6v11.9h-6.6v-3.4h1.7v1.7h3.3v-3.4H565.4z"/>
	<path class="st3" d="M607.4,317.7V316h3.3v-3.4h-3.3v1.7h-1.7v-3.4h6.6v11.9h-6.6v-3.4h1.7v1.7h3.3v-3.4H607.4z"/>
	<path class="st3" d="M647.7,317.7v-6.8h1.7v5.1h3.3v-5.1h1.7v11.9h-1.7v-5.1H647.7z"/>
	<path class="st3" d="M689.7,317.7v-6.8h6.6v3.4h-1.7v-1.7h-3.3v3.4h5v6.8h-6.6v-3.4h1.7v1.7h3.3v-3.4H689.7z"/>
	<path class="st3" d="M15.2,354.5v-1.7h3.3v11.9h-1.7v-10.2H15.2z"/>
	<path class="st3" d="M20.2,364.7v-6.8h5v-3.4h-3.3v1.7h-1.7v-3.4h6.6v6.8h-5v3.4h3.3v-1.7h1.7v3.4H20.2z"/>
	<path class="st3" d="M58.9,354.5v-1.7h3.3v11.9h-1.7v-10.2H58.9z"/>
	<path class="st3" d="M63.9,354.5v-1.7h3.3v11.9h-1.7v-10.2H63.9z"/>
	<path class="st3" d="M227.7,356.2v-3.4h6.6v11.9h-1.7v-10.2h-3.3v1.7H227.7z"/>
	<path class="st3" d="M269.7,364.7v-11.9h6.6v3.4h-1.7v-1.7h-3.3v3.4h5v6.8H269.7z M271.4,363h3.3v-3.4h-3.3V363z"/>
	<path class="st3" d="M311.7,359.6v-6.8h6.6v3.4h-1.7v-1.7h-3.3v3.4h5v6.8h-6.6v-3.4h1.7v1.7h3.3v-3.4H311.7z"/>
	<path class="st3" d="M353.7,359.6v-6.8h1.7v5.1h3.3v-5.1h1.7v11.9h-1.7v-5.1H353.7z"/>
	<path class="st3" d="M397.4,359.6v-1.7h3.3v-3.4h-3.3v1.7h-1.7v-3.4h6.6v11.9h-6.6v-3.4h1.7v1.7h3.3v-3.4H397.4z"/>
	<path class="st3" d="M437.7,364.7v-6.8h5v-3.4h-3.3v1.7h-1.7v-3.4h6.6v6.8h-5v3.4h3.3v-1.7h1.7v3.4H437.7z"/>
	<path class="st3" d="M481.4,354.5v-1.7h3.3v11.9H483v-10.2H481.4z"/>
	<path class="st3" d="M523.4,354.5v-1.7h3.3v11.9H525v-10.2H523.4z"/>
	<path class="st3" d="M563.7,364.7v-6.8h5v-3.4h-3.3v1.7h-1.7v-3.4h6.6v6.8h-5v3.4h3.3v-1.7h1.7v3.4H563.7z"/>
	<path class="st3" d="M605.7,364.7v-6.8h5v-3.4h-3.3v1.7h-1.7v-3.4h6.6v6.8h-5v3.4h3.3v-1.7h1.7v3.4H605.7z"/>
	<path class="st3" d="M649.4,359.6v-1.7h3.3v-3.4h-3.3v1.7h-1.7v-3.4h6.6v11.9h-6.6v-3.4h1.7v1.7h3.3v-3.4H649.4z"/>
	<path class="st3" d="M689.7,359.6v-6.8h1.7v5.1h3.3v-5.1h1.7v11.9h-1.7v-5.1H689.7z"/>
	<path class="st3" d="M16.9,396.5v-1.7h3.3v11.9h-1.7v-10.2H16.9z"/>
	<path class="st3" d="M21.9,396.5v-1.7h3.3v11.9h-1.7v-10.2H21.9z"/>
	<path class="st3" d="M57.2,396.5v-1.7h3.3v11.9h-1.7v-10.2H57.2z"/>
	<path class="st3" d="M62.2,406.7v-11.9h6.6v11.9H62.2z M63.9,405h3.3v-8.5h-3.3V405z"/>
	<path class="st3" d="M101.7,401.6v-6.8h6.6v11.9h-1.7v-5.1H101.7z M103.4,399.9h3.3v-3.4h-3.3V399.9z"/>
	<path class="st3" d="M143.7,406.7v-11.9h6.6v11.9H143.7z M145.4,396.5v3.4h3.3v-3.4H145.4z M145.4,405h3.3v-3.4h-3.3V405z"/>
	<path class="st3" d="M269.7,401.6v-6.8h6.6v3.4h-1.7v-1.7h-3.3v3.4h5v6.8h-6.6v-3.4h1.7v1.7h3.3v-3.4H269.7z"/>
	<path class="st3" d="M311.7,401.6v-6.8h1.7v5.1h3.3v-5.1h1.7v11.9h-1.7v-5.1H311.7z"/>
	<path class="st3" d="M355.4,401.6v-1.7h3.3v-3.4h-3.3v1.7h-1.7v-3.4h6.6v11.9h-6.6v-3.4h1.7v1.7h3.3v-3.4H355.4z"/>
	<path class="st3" d="M395.7,406.7v-6.8h5v-3.4h-3.3v1.7h-1.7v-3.4h6.6v6.8h-5v3.4h3.3v-1.7h1.7v3.4H395.7z"/>
	<path class="st3" d="M439.4,396.5v-1.7h3.3v11.9H441v-10.2H439.4z"/>
	<path class="st3" d="M565.4,396.5v-1.7h3.3v11.9H567v-10.2H565.4z"/>
	<path class="st3" d="M607.4,396.5v-1.7h3.3v11.9H609v-10.2H607.4z"/>
	<path class="st3" d="M647.7,406.7v-6.8h5v-3.4h-3.3v1.7h-1.7v-3.4h6.6v6.8h-5v3.4h3.3v-1.7h1.7v3.4H647.7z"/>
	<path class="st3" d="M691.4,401.6v-1.7h3.3v-3.4h-3.3v1.7h-1.7v-3.4h6.6v11.9h-6.6v-3.4h1.7v1.7h3.3v-3.4H691.4z"/>
	<path class="st3" d="M16.9,438.5v-1.7h3.3v11.9h-1.7v-10.2H16.9z"/>
	<path class="st3" d="M21.9,438.5v-1.7h3.3v11.9h-1.7v-10.2H21.9z"/>
	<path class="st3" d="M57.2,438.5v-1.7h3.3v11.9h-1.7v-10.2H57.2z"/>
	<path class="st3" d="M62.2,448.7v-11.9h6.6v11.9H62.2z M63.9,447h3.3v-8.5h-3.3V447z"/>
	<path class="st3" d="M101.7,443.6v-6.8h6.6v11.9h-1.7v-5.1H101.7z M103.4,441.9h3.3v-3.4h-3.3V441.9z"/>
	<path class="st3" d="M143.7,448.7v-11.9h6.6v11.9H143.7z M145.4,438.5v3.4h3.3v-3.4H145.4z M145.4,447h3.3v-3.4h-3.3V447z"/>
	<path class="st3" d="M185.7,440.2v-3.4h6.6v11.9h-1.7v-10.2h-3.3v1.7H185.7z"/>
	<path class="st3" d="M227.7,448.7v-11.9h6.6v3.4h-1.7v-1.7h-3.3v3.4h5v6.8H227.7z M229.4,447h3.3v-3.4h-3.3V447z"/>
	<path class="st3" d="M269.7,443.6v-6.8h6.6v3.4h-1.7v-1.7h-3.3v3.4h5v6.8h-6.6v-3.4h1.7v1.7h3.3v-3.4H269.7z"/>
	<path class="st3" d="M311.7,443.6v-6.8h1.7v5.1h3.3v-5.1h1.7v11.9h-1.7v-5.1H311.7z"/>
	<path class="st3" d="M355.4,443.6v-1.7h3.3v-3.4h-3.3v1.7h-1.7v-3.4h6.6v11.9h-6.6v-3.4h1.7v1.7h3.3v-3.4H355.4z"/>
	<path class="st3" d="M395.7,448.7v-6.8h5v-3.4h-3.3v1.7h-1.7v-3.4h6.6v6.8h-5v3.4h3.3v-1.7h1.7v3.4H395.7z"/>
	<path class="st3" d="M439.4,438.5v-1.7h3.3v11.9H441v-10.2H439.4z"/>
	<path class="st3" d="M649.4,438.5v-1.7h3.3v11.9H651v-10.2H649.4z"/>
	<path class="st3" d="M689.7,448.7v-6.8h5v-3.4h-3.3v1.7h-1.7v-3.4h6.6v6.8h-5v3.4h3.3v-1.7h1.7v3.4H689.7z"/>
	<path class="st3" d="M15.2,480.5v-1.7h3.3v11.9h-1.7v-10.2H15.2z"/>
	<path class="st3" d="M20.2,490.7v-6.8h5v-3.4h-3.3v1.7h-1.7v-3.4h6.6v6.8h-5v3.4h3.3v-1.7h1.7v3.4H20.2z"/>
	<path class="st3" d="M58.9,480.5v-1.7h3.3v11.9h-1.7v-10.2H58.9z"/>
	<path class="st3" d="M63.9,480.5v-1.7h3.3v11.9h-1.7v-10.2H63.9z"/>
	<path class="st3" d="M99.2,480.5v-1.7h3.3v11.9h-1.7v-10.2H99.2z"/>
	<path class="st3" d="M104.2,490.7v-11.9h6.6v11.9H104.2z M105.9,489h3.3v-8.5h-3.3V489z"/>
	<path class="st3" d="M143.7,485.6v-6.8h6.6v11.9h-1.7v-5.1H143.7z M145.4,483.9h3.3v-3.4h-3.3V483.9z"/>
	<path class="st3" d="M185.7,490.7v-11.9h6.6v11.9H185.7z M187.4,480.5v3.4h3.3v-3.4H187.4z M187.4,489h3.3v-3.4h-3.3V489z"/>
	<path class="st3" d="M227.7,482.2v-3.4h6.6v11.9h-1.7v-10.2h-3.3v1.7H227.7z"/>
	<path class="st3" d="M269.7,490.7v-11.9h6.6v3.4h-1.7v-1.7h-3.3v3.4h5v6.8H269.7z M271.4,489h3.3v-3.4h-3.3V489z"/>
	<path class="st3" d="M311.7,485.6v-6.8h6.6v3.4h-1.7v-1.7h-3.3v3.4h5v6.8h-6.6v-3.4h1.7v1.7h3.3v-3.4H311.7z"/>
	<path class="st3" d="M353.7,485.6v-6.8h1.7v5.1h3.3v-5.1h1.7v11.9h-1.7v-5.1H353.7z"/>
	<path class="st3" d="M397.4,485.6v-1.7h3.3v-3.4h-3.3v1.7h-1.7v-3.4h6.6v11.9h-6.6v-3.4h1.7v1.7h3.3v-3.4H397.4z"/>
	<path class="st3" d="M437.7,490.7v-6.8h5v-3.4h-3.3v1.7h-1.7v-3.4h6.6v6.8h-5v3.4h3.3v-1.7h1.7v3.4H437.7z"/>
	<path class="st3" d="M481.4,480.5v-1.7h3.3v11.9H483v-10.2H481.4z"/>
	<path class="st3" d="M523.4,480.5v-1.7h3.3v11.9H525v-10.2H523.4z"/>
	<path class="st3" d="M649.4,480.5v-1.7h3.3v11.9H651v-10.2H649.4z"/>
	<path class="st3" d="M689.7,490.7v-6.8h5v-3.4h-3.3v1.7h-1.7v-3.4h6.6v6.8h-5v3.4h3.3v-1.7h1.7v3.4H689.7z"/>
	<path class="st3" d="M15.2,522.5v-1.7h3.3v11.9h-1.7v-10.2H15.2z"/>
	<path class="st3" d="M21.9,527.6v-1.7h3.3v-3.4h-3.3v1.7h-1.7v-3.4h6.6v11.9h-6.6v-3.4h1.7v1.7h3.3v-3.4H21.9z"/>
	<path class="st3" d="M57.2,522.5v-1.7h3.3v11.9h-1.7v-10.2H57.2z"/>
	<path class="st3" d="M62.2,532.7v-6.8h5v-3.4h-3.3v1.7h-1.7v-3.4h6.6v6.8h-5v3.4h3.3v-1.7h1.7v3.4H62.2z"/>
	<path class="st3" d="M100.9,522.5v-1.7h3.3v11.9h-1.7v-10.2H100.9z"/>
	<path class="st3" d="M105.9,522.5v-1.7h3.3v11.9h-1.7v-10.2H105.9z"/>
	<path class="st3" d="M141.2,522.5v-1.7h3.3v11.9h-1.7v-10.2H141.2z"/>
	<path class="st3" d="M146.2,532.7v-11.9h6.6v11.9H146.2z M147.9,531h3.3v-8.5h-3.3V531z"/>
	<path class="st3" d="M185.7,527.6v-6.8h6.6v11.9h-1.7v-5.1H185.7z M187.4,525.9h3.3v-3.4h-3.3V525.9z"/>
	<path class="st3" d="M227.7,532.7v-11.9h6.6v11.9H227.7z M229.4,522.5v3.4h3.3v-3.4H229.4z M229.4,531h3.3v-3.4h-3.3V531z"/>
	<path class="st3" d="M269.7,524.2v-3.4h6.6v11.9h-1.7v-10.2h-3.3v1.7H269.7z"/>
	<path class="st3" d="M311.7,532.7v-11.9h6.6v3.4h-1.7v-1.7h-3.3v3.4h5v6.8H311.7z M313.4,531h3.3v-3.4h-3.3V531z"/>
	<path class="st3" d="M353.7,527.6v-6.8h6.6v3.4h-1.7v-1.7h-3.3v3.4h5v6.8h-6.6v-3.4h1.7v1.7h3.3v-3.4H353.7z"/>
	<path class="st3" d="M395.7,527.6v-6.8h1.7v5.1h3.3v-5.1h1.7v11.9h-1.7v-5.1H395.7z"/>
	<path class="st3" d="M439.4,527.6v-1.7h3.3v-3.4h-3.3v1.7h-1.7v-3.4h6.6v11.9h-6.6v-3.4h1.7v1.7h3.3v-3.4H439.4z"/>
	<path class="st3" d="M479.7,532.7v-6.8h5v-3.4h-3.3v1.7h-1.7v-3.4h6.6v6.8h-5v3.4h3.3v-1.7h1.7v3.4H479.7z"/>
	<path class="st3" d="M521.7,532.7v-6.8h5v-3.4h-3.3v1.7h-1.7v-3.4h6.6v6.8h-5v3.4h3.3v-1.7h1.7v3.4H521.7z"/>
	<path class="st3" d="M565.4,522.5v-1.7h3.3v11.9H567v-10.2H565.4z"/>
	<path class="st3" d="M649.4,522.5v-1.7h3.3v11.9H651v-10.2H649.4z"/>
	<path class="st3" d="M689.7,532.7v-6.8h5v-3.4h-3.3v1.7h-1.7v-3.4h6.6v6.8h-5v3.4h3.3v-1.7h1.7v3.4H689.7z"/>
	<path class="st3" d="M15.2,564.5v-1.7h3.3v11.9h-1.7v-10.2H15.2z"/>
	<path class="st3" d="M20.2,569.6v-6.8h1.7v5.1h3.3v-5.1h1.7v11.9h-1.7v-5.1H20.2z"/>
	<path class="st3" d="M57.2,564.5v-1.7h3.3v11.9h-1.7v-10.2H57.2z"/>
	<path class="st3" d="M63.9,569.6v-1.7h3.3v-3.4h-3.3v1.7h-1.7v-3.4h6.6v11.9h-6.6v-3.4h1.7v1.7h3.3v-3.4H63.9z"/>
	<path class="st3" d="M99.2,564.5v-1.7h3.3v11.9h-1.7v-10.2H99.2z"/>
	<path class="st3" d="M104.2,574.7v-6.8h5v-3.4h-3.3v1.7h-1.7v-3.4h6.6v6.8h-5v3.4h3.3v-1.7h1.7v3.4H104.2z"/>
	<path class="st3" d="M142.9,564.5v-1.7h3.3v11.9h-1.7v-10.2H142.9z"/>
	<path class="st3" d="M147.9,564.5v-1.7h3.3v11.9h-1.7v-10.2H147.9z"/>
	<path class="st3" d="M183.2,564.5v-1.7h3.3v11.9h-1.7v-10.2H183.2z"/>
	<path class="st3" d="M188.2,574.7v-11.9h6.6v11.9H188.2z M189.9,573h3.3v-8.5h-3.3V573z"/>
	<path class="st3" d="M227.7,569.6v-6.8h6.6v11.9h-1.7v-5.1H227.7z M229.4,567.9h3.3v-3.4h-3.3V567.9z"/>
	<path class="st3" d="M269.7,574.7v-11.9h6.6v11.9H269.7z M271.4,564.5v3.4h3.3v-3.4H271.4z M271.4,573h3.3v-3.4h-3.3V573z"/>
	<path class="st3" d="M311.7,566.2v-3.4h6.6v11.9h-1.7v-10.2h-3.3v1.7H311.7z"/>
	<path class="st3" d="M353.7,574.7v-11.9h6.6v3.4h-1.7v-1.7h-3.3v3.4h5v6.8H353.7z M355.4,573h3.3v-3.4h-3.3V573z"/>
	<path class="st3" d="M395.7,569.6v-6.8h6.6v3.4h-1.7v-1.7h-3.3v3.4h5v6.8h-6.6v-3.4h1.7v1.7h3.3v-3.4H395.7z"/>
	<path class="st3" d="M437.7,569.6v-6.8h1.7v5.1h3.3v-5.1h1.7v11.9h-1.7v-5.1H437.7z"/>
	<path class="st3" d="M481.4,569.6v-1.7h3.3v-3.4h-3.3v1.7h-1.7v-3.4h6.6v11.9h-6.6v-3.4h1.7v1.7h3.3v-3.4H481.4z"/>
	<path class="st3" d="M523.4,569.6v-1.7h3.3v-3.4h-3.3v1.7h-1.7v-3.4h6.6v11.9h-6.6v-3.4h1.7v1.7h3.3v-3.4H523.4z"/>
	<path class="st3" d="M563.7,574.7v-6.8h5v-3.4h-3.3v1.7h-1.7v-3.4h6.6v6.8h-5v3.4h3.3v-1.7h1.7v3.4H563.7z"/>
	<path class="st3" d="M607.4,564.5v-1.7h3.3v11.9H609v-10.2H607.4z"/>
	<path class="st3" d="M647.7,574.7v-6.8h5v-3.4h-3.3v1.7h-1.7v-3.4h6.6v6.8h-5v3.4h3.3v-1.7h1.7v3.4H647.7z"/>
	<path class="st3" d="M691.4,569.6v-1.7h3.3v-3.4h-3.3v1.7h-1.7v-3.4h6.6v11.9h-6.6v-3.4h1.7v1.7h3.3v-3.4H691.4z"/>
	<path class="st3" d="M15.2,606.5v-1.7h3.3v11.9h-1.7v-10.2H15.2z"/>
	<path class="st3" d="M20.2,611.6v-6.8h6.6v3.4h-1.7v-1.7h-3.3v3.4h5v6.8h-6.6v-3.4h1.7v1.7h3.3v-3.4H20.2z"/>
	<path class="st3" d="M57.2,606.5v-1.7h3.3v11.9h-1.7v-10.2H57.2z"/>
	<path class="st3" d="M62.2,611.6v-6.8h1.7v5.1h3.3v-5.1h1.7v11.9h-1.7v-5.1H62.2z"/>
	<path class="st3" d="M99.2,606.5v-1.7h3.3v11.9h-1.7v-10.2H99.2z"/>
	<path class="st3" d="M105.9,611.6v-1.7h3.3v-3.4h-3.3v1.7h-1.7v-3.4h6.6v11.9h-6.6v-3.4h1.7v1.7h3.3v-3.4H105.9z"/>
	<path class="st3" d="M141.2,606.5v-1.7h3.3v11.9h-1.7v-10.2H141.2z"/>
	<path class="st3" d="M146.2,616.7v-6.8h5v-3.4h-3.3v1.7h-1.7v-3.4h6.6v6.8h-5v3.4h3.3v-1.7h1.7v3.4H146.2z"/>
	<path class="st3" d="M184.9,606.5v-1.7h3.3v11.9h-1.7v-10.2H184.9z"/>
	<path class="st3" d="M189.9,606.5v-1.7h3.3v11.9h-1.7v-10.2H189.9z"/>
	<path class="st3" d="M225.2,606.5v-1.7h3.3v11.9h-1.7v-10.2H225.2z"/>
	<path class="st3" d="M230.2,616.7v-11.9h6.6v11.9H230.2z M231.9,615h3.3v-8.5h-3.3V615z"/>
	<path class="st3" d="M269.7,611.6v-6.8h6.6v11.9h-1.7v-5.1H269.7z M271.4,609.9h3.3v-3.4h-3.3V609.9z"/>
	<path class="st3" d="M311.7,616.7v-11.9h6.6v11.9H311.7z M313.4,606.5v3.4h3.3v-3.4H313.4z M313.4,615h3.3v-3.4h-3.3V615z"/>
	<path class="st3" d="M353.7,608.2v-3.4h6.6v11.9h-1.7v-10.2h-3.3v1.7H353.7z"/>
	<path class="st3" d="M395.7,616.7v-11.9h6.6v3.4h-1.7v-1.7h-3.3v3.4h5v6.8H395.7z M397.4,615h3.3v-3.4h-3.3V615z"/>
	<path class="st3" d="M437.7,611.6v-6.8h6.6v3.4h-1.7v-1.7h-3.3v3.4h5v6.8h-6.6v-3.4h1.7v1.7h3.3v-3.4H437.7z"/>
	<path class="st3" d="M479.7,611.6v-6.8h1.7v5.1h3.3v-5.1h1.7v11.9h-1.7v-5.1H479.7z"/>
	<path class="st3" d="M521.7,611.6v-6.8h1.7v5.1h3.3v-5.1h1.7v11.9h-1.7v-5.1H521.7z"/>
	<path class="st3" d="M565.4,611.6v-1.7h3.3v-3.4h-3.3v1.7h-1.7v-3.4h6.6v11.9h-6.6v-3.4h1.7v1.7h3.3v-3.4H565.4z"/>
	<path class="st3" d="M605.7,616.7v-6.8h5v-3.4h-3.3v1.7h-1.7v-3.4h6.6v6.8h-5v3.4h3.3v-1.7h1.7v3.4H605.7z"/>
	<path class="st3" d="M649.4,611.6v-1.7h3.3v-3.4h-3.3v1.7h-1.7v-3.4h6.6v11.9h-6.6v-3.4h1.7v1.7h3.3v-3.4H649.4z"/>
	<path class="st3" d="M689.7,611.6v-6.8h1.7v5.1h3.3v-5.1h1.7v11.9h-1.7v-5.1H689.7z"/>
</g>
</svg>
